<?xml version="1.0" encoding="UTF-8" standalone="no"?><!DOCTYPE svg PUBLIC "-//W3C//DTD SVG 1.1//EN" "http://www.w3.org/Graphics/SVG/1.1/DTD/svg11.dtd"><svg width="100%" height="100%" viewBox="0 0 1024 1024" version="1.1" xmlns="http://www.w3.org/2000/svg" xmlns:xlink="http://www.w3.org/1999/xlink" xml:space="preserve" xmlns:serif="http://www.serif.com/" style="fill-rule:evenodd;clip-rule:evenodd;stroke-linejoin:round;stroke-miterlimit:2;"><g id="CHN"><path d="M831.722,64.788l-48.712,-31.092l-718.222,158.582l-31.092,48.712l158.582,718.222l48.712,31.092l718.222,-158.582l31.092,-48.712l-158.582,-718.222Z" style="fill:#7bc74d;"/><path d="M900.489,179.291l-38.849,-38.849l-699.28,0l-38.849,38.849l0,699.28l38.849,38.849l699.28,-0l38.849,-38.849l-0,-699.28Z" style="fill:#222831;"/><path d="M350.275,582.942c-14.611,14.615 -36.528,22.558 -55.903,22.558c-54.951,0 -76.232,-38.443 -76.55,-75.298c-0.317,-37.173 22.87,-77.205 76.55,-77.205c19.375,0 39.068,6.672 53.679,20.969l27.952,-26.998c-22.869,-22.53 -51.456,-33.953 -81.631,-33.953c-80.358,0 -118.12,59.045 -117.802,117.187c0.317,57.824 35.223,114.645 117.802,114.645c32.08,-0 61.62,-10.471 84.49,-33.001l-28.587,-28.904Z" style="fill:#eee;fill-rule:nonzero;"/><path d="M595.487,639.765l-0,-221.985l-41.57,-0l-0,93.701l-109.305,0l-0,-93.701l-41.888,-0l-0,221.985l41.888,-0l-0,-89.572l109.305,-0l-0,89.572l41.57,-0Z" style="fill:#eee;fill-rule:nonzero;"/><path d="M781.024,555.169l-108.98,-138.025l-33.955,0l0,222.621l41.888,-0l0,-150.11l116.913,150.11l26.022,-0l-0,-222.621l-41.888,0l-0,138.025Z" style="fill:#eee;fill-rule:nonzero;"/><rect x="176.568" y="722.046" width="670.865" height="60.965" style="fill:#393e46;"/></g></svg>